<?xml version="1.0" encoding="UTF-8"?>
<svg width="300px" height="45px" xmlns="http://www.w3.org/2000/svg" viewBox="0 0 370.15 55.94">
  <defs>
    <style>.cls-1{fill:#404143;}</style>
  </defs>
  <g id="Ebene_2" data-name="Ebene 2">
    <g id="Ebene_1-2" data-name="Ebene 1">
      <path class="cls-1" d="M133.57,53.51c0,.86-.15,1.1-1.06,1.1h-7.44c-.91,0-1.06-.24-1.06-1.1V29.29c0-3-.37-6.6-4.21-6.6-3.16,0-5.65,2.28-6.63,3.22v27.6c0,.86-.15,1.1-1,1.1h-7.45c-.9,0-1-.24-1-1.1V29.76c0-11.08-1.43-10.45-1.43-12.26,0-.39.3-.71.83-.87l5.71-2a3.58,3.58,0,0,1,1.13-.24c1,0,1.58,1.73,2.41,5.43,2.18-2.05,5.57-5.43,11.52-5.43,4.13,0,9.78,2,9.78,11.48Z"></path>
      <path class="cls-1" d="M165.87,52.33c.08.39.15.39.15.63,0,1.49-5.49,3-10.61,3-9.7,0-9.7-7.94-9.7-15.17V23.08H141c-.9,0-1.05-.24-1.05-1.1V16.87c0-.86.15-1.1,1.05-1.1h4.72V5.86c0-1,.14-1.26,1.2-1.41l6.62-1c.23,0,.53-.07,1-.07.68,0,.75.39.75,1.33v11h8.58c.68,0,1.28,0,1.28.86a2.16,2.16,0,0,1-.08.63l-1,4.64c-.23,1.1-.46,1.18-1.36,1.18h-7.45v19c0,2.51,0,4.79,2.56,4.79,3,0,4.89-1.49,5.94-1.49a.58.58,0,0,1,.61.47Z"></path>
      <path class="cls-1" d="M192.19,30.55c0-3.23-.54-8.81-5.73-8.81-5.87,0-6.17,6.61-6.4,8.81Zm8.42,19.89a1.66,1.66,0,0,1,.22.87c0,2-7.52,4.63-13.47,4.63-9.93,0-16.85-5.89-16.85-20.36,0-12.5,6.39-21.15,16.48-21.15,12.79,0,15,12,15,21.47,0,1.49-.3,2-1.73,2H180.06c0,4.4,1.21,9.83,8.28,9.83,5.42,0,8.5-2.6,9.56-2.6a1,1,0,0,1,.83.63Z"></path>
      <path class="cls-1" d="M240.69,53.51c0,.86-.15,1.1-1.05,1.1h-7.45c-.91,0-1.06-.24-1.06-1.1V29.29c0-3-.37-6.6-4.21-6.6-3.16,0-5.64,2.28-6.62,3.22v27.6c0,.86-.15,1.1-1.06,1.1h-7.45c-.9,0-1-.24-1-1.1V29.76c0-11.08-1.43-10.45-1.43-12.26,0-.39.3-.71.83-.87l5.72-2a3.47,3.47,0,0,1,1.13-.24c1,0,1.58,1.73,2.41,5.43,2.18-2.05,5.56-5.43,11.51-5.43,4.14,0,9.78,2,9.78,11.48Z"></path>
      <path class="cls-1" d="M272.74,52.33c.08.39.15.39.15.63,0,1.49-5.49,3-10.61,3-9.71,0-9.71-7.94-9.71-15.17V23.08h-4.71c-.9,0-1.05-.24-1.05-1.1V16.87c0-.86.15-1.1,1.05-1.1h4.71V5.86c0-1,.16-1.26,1.21-1.41l6.62-1c.23,0,.53-.07,1-.07.68,0,.75.39.75,1.33v11h8.58c.68,0,1.28,0,1.28.86a2.45,2.45,0,0,1-.07.63l-1,4.64c-.23,1.1-.45,1.18-1.36,1.18h-7.45v19c0,2.51,0,4.79,2.56,4.79,3,0,4.89-1.49,5.95-1.49a.57.57,0,0,1,.6.47Z"></path>
      <path class="cls-1" d="M323.09,35.19c0-7.32-1.08-12.9-6.27-12.9s-6.25,5.58-6.25,12.9,1,12.89,6.25,12.89,6.27-5.45,6.27-12.84Zm-6.27,20.75c-10.16,0-16.19-8.09-16.19-20.75s6-20.76,16.19-20.76S333,22.42,333,35.07,327,55.94,316.82,55.94"></path>
      <path class="cls-1" d="M370.15,53.51c0,.86-.15,1.1-1,1.1h-7.46c-.9,0-1.05-.24-1.05-1.1V29.29c0-3-.38-6.6-4.21-6.6-3.16,0-5.65,2.28-6.62,3.22v27.6c0,.86-.16,1.1-1.06,1.1h-7.45c-.9,0-1.05-.24-1.05-1.1V29.76c0-11.08-1.43-10.45-1.43-12.26,0-.39.3-.71.83-.87l5.72-2a3.47,3.47,0,0,1,1.12-.24c1,0,1.58,1.73,2.41,5.43,2.18-2.05,5.57-5.43,11.52-5.43,4.13,0,9.78,2,9.78,11.48Z"></path>
      <path class="cls-1" d="M93.58,53.51c0,.86-.15,1.1-1,1.1H85.08c-.91,0-1.06-.24-1.06-1.1V23.08H81.38c-.9,0-1-.24-1-1.1V16.87c0-.86.15-1.1,1-1.1H92.53c.9,0,1,.24,1,1.1Z"></path>
      <path class="cls-1" d="M88,10.87A5.46,5.46,0,0,1,82.51,5.4,5.44,5.44,0,1,1,88,10.87"></path>
      <path class="cls-1" d="M292.37,53.51c0,.86-.15,1.1-1.06,1.1h-7.45c-.9,0-1.05-.24-1.05-1.1V23.08h-2.64c-.9,0-1.05-.24-1.05-1.1V16.87c0-.87.15-1.1,1.05-1.1h11.14c.91,0,1.06.23,1.06,1.1Z"></path>
      <path class="cls-1" d="M287.06,10.87a5.46,5.46,0,0,1-5.47-5.47,5.44,5.44,0,1,1,5.47,5.47"></path>
      <path class="cls-1" d="M40.7,55.82l-8.82-9L47.18,33,31.88,19.14l8.82-9L64.46,33Z"></path>
      <path class="cls-1" d="M8.82,55.82,0,46.79,15.3,33,0,19.14l8.83-9L32.59,33Z"></path>
    </g>
  </g>
</svg>
